<?xml version="1.0" encoding="utf-8"?>
<!-- Generator: Adobe Illustrator 28.0.0, SVG Export Plug-In . SVG Version: 6.00 Build 0)  -->
<svg version="1.1" id="Layer_1" xmlns="http://www.w3.org/2000/svg" xmlns:xlink="http://www.w3.org/1999/xlink" x="0px" y="0px"
	 viewBox="0 0 8000 3000" style="enable-background:new 0 0 8000 3000;" xml:space="preserve">
<style type="text/css">
	.st0{fill:#333333;}
	.st1{fill:#FFD500;}
	.st2{font-family:'Arial-Black';}
	.st3{font-size:178px;}
	.st4{letter-spacing:4;}
	.st5{fill:none;}
	.st6{font-size:170px;}
</style>
<g>
	<path class="st0" d="M6437.67,1637.43l0.34,55.51c-0.35-0.09-0.71-0.18-1.06-0.27c-76.36-20.57-123.44-66.5-143.92-140.42
		c-3.81-13.75-7.37-27.63-11.13-42.33c-25.6-99.95-54.61-213.24-167.33-265.74c-60.02-27.96-121.28-28.36-168.08-1.11
		c-47.68,27.76-77.08,82.21-82.8,153.31c-4.85,60.3-1.01,135.92,2.37,202.64c1,19.63,1.94,38.17,2.62,55.53
		c3.68,93.17-5.6,153.14-63.13,164.25c-62.87,12.14-115.79-51.19-135.62-78.98c-7.58-10.62-15.07-21.95-22.3-32.91
		c-26.98-40.84-54.87-83.07-98.91-107.91c-68.23-38.49-150.74-22.41-229.42-2.64l-735.91,184.92c-18.01,4.53-37.18,9.34-56.7,15.05
		c-63.18-74.64-159.92-126.65-302.67-163.02c-31.87-8.12-64.54-15.34-96.12-22.31c-82.27-18.17-167.35-36.97-243.81-73.17
		c-10.35-4.9-20.81-10.36-31.26-16.38c75.99-49.87,126.25-106.61,152.59-171.85c24.76-61.33,21.37-136.83-8.84-197.03
		c-24.14-48.1-63.08-81.32-109.65-93.55c-51.18-13.44-106.86,0.87-152.77,39.26c-55.56,46.46-88,120.19-82.64,187.83
		c4.6,58.07,29.84,115.41,72.99,165.82c21.7,25.35,47.46,48.6,76.29,69.02c-17.04,9.64-35.2,19.02-54.54,28.16
		c-128.09,60.56-264.56,98.05-405.61,111.43l-7.62,0.72c-116.17,10.97-260.74,24.62-307.91,137.13
		c-18.06,43.07-15.49,89.86-13.01,135.12c2.48,45.29,4.83,88.06-12.34,125.81c-16.22,35.67-49.38,60.72-93.37,70.53
		c-58.76,13.11-125.3-2.72-169.51-40.34c-86.86-73.9-110.53-200.75-120.78-289.75c-2.28-19.78-4.26-40.12-6.18-59.79
		c-8.88-90.97-18.06-185.03-59.51-268.46c-26.02-52.37-69.49-98.68-119.26-127.05c-55.22-31.47-114.37-38.82-166.54-20.69
		c-79.05,27.47-122.17,100.33-163.87,170.79c-23.3,39.37-47.39,80.08-77.39,112.19c-132.13,141.38-364.41,132.82-509.3,109.95
		c-1.34-73.84-61.61-133.29-135.78-133.29c-75,0-135.81,60.8-135.81,135.81c0,75,60.8,135.81,135.81,135.81
		c66.46,0,121.75-47.74,133.5-110.79c71.91,11.26,158.98,18,246.86,8.25c123.02-13.66,218.85-56.37,284.81-126.96
		c32.05-34.29,56.92-76.32,80.97-116.96c40.98-69.25,79.69-134.66,149.23-158.82c97.75-33.96,206.99,43.11,252.15,134
		c39.2,78.9,48.13,170.41,56.76,258.9c1.93,19.79,3.93,40.25,6.23,60.27c10.78,93.62,36.01,227.35,130.28,307.55
		c38.81,33.02,92.55,51.39,145.68,51.39c16.08,0,32.11-1.68,47.64-5.15c52.62-11.74,92.54-42.28,112.42-85.99
		c19.96-43.9,17.32-92.09,14.77-138.7c-2.42-44.09-4.7-85.74,10.92-122.98c17.94-42.8,55.05-72.87,113.45-91.91
		c52.88-17.25,116-23.21,171.69-28.47l7.64-0.72c144.24-13.68,283.79-52.02,414.77-113.94c24.55-11.61,47.36-23.64,68.44-36.11
		c14.68,9.01,30,17.3,45.86,24.81c79.27,37.53,165.88,56.66,249.65,75.16c31.38,6.93,63.82,14.1,95.27,22.11
		c131.16,33.42,221.28,79.94,280.79,145.4c-45.47,15.5-90.75,37.28-125.94,72.67c-33.86,34.06-53.98,84.66-52.51,132.03
		c1.16,37.26,15.05,68.75,40.18,91.08c27.46,24.4,66.41,33.66,106.86,25.4c48.14-9.83,90.29-41.84,109.99-83.53
		c16.98-35.92,21.27-78.05,12.41-121.84c-7.17-35.42-22.36-70.23-44.18-101.42c15.55-4.34,30.8-8.17,45.26-11.81l735.9-184.92
		c73.28-18.42,149.8-33.59,209.2-0.08c38.27,21.59,63.14,59.25,89.48,99.12c7.37,11.16,15,22.7,22.87,33.73
		c20.81,29.15,73.64,92.06,141.96,92.05c6.93,0,14.03-0.65,21.26-2.05c39.08-7.54,65.07-32.94,77.25-75.47
		c10.35-36.13,9.63-79.27,8.15-116.87c-0.69-17.52-1.64-36.13-2.64-55.84c-3.34-65.88-7.13-140.54-2.43-199.04
		c5.05-62.76,28.99-108.31,69.23-131.75c38.9-22.65,90.89-21.83,142.63,2.27c100.93,47.01,127.04,149,152.3,247.63
		c3.63,14.18,7.39,28.85,11.27,42.85c12.31,44.42,33.76,80.7,63.78,107.85c26.46,23.94,59.01,40.88,99.49,51.78
		c2.78,0.75,5.58,1.45,8.39,2.13l0.45,72.72l318.91-80.29L6437.67,1637.43z M3678.92,1283.94c-4.67-59.04,23.93-123.64,72.87-164.57
		c29.84-24.96,63.07-37.91,96.09-37.91c10.75,0,21.47,1.37,32.05,4.15c38.82,10.19,71.51,38.35,92.05,79.28
		c26.77,53.35,29.81,120.17,7.92,174.4c-25.39,62.89-75.73,117.67-152.95,166.08C3753.17,1455.99,3686.49,1379.56,3678.92,1283.94z
		 M4551.73,2031.26c-15.83,33.5-51.41,60.33-90.63,68.34c-32.35,6.6-61.85-0.15-83.09-19.02c-24.43-21.71-30.32-50.8-30.96-71.38
		c-1.24-40.08,15.82-82.91,44.52-111.79c33.86-34.06,79.62-54.62,125.32-69.31C4565.82,1893.02,4579.52,1972.47,4551.73,2031.26z"/>
	<text transform="matrix(0.987 -0.1605 0.1605 0.987 1071.2317 2088.5601)" class="st1 st2 st3 st4">JAZZ</text>
	<circle class="st0" cx="2600.14" cy="1691.12" r="136.98"/>
	<circle class="st0" cx="4000" cy="1165.83" r="136.98"/>
	<circle class="st0" cx="4524.4" cy="2111.44" r="136.98"/>
	<circle class="st0" cx="5794.87" cy="1819.36" r="136.98"/>
	<rect x="2600.14" y="1219.91" class="st5" width="726.05" height="520.57"/>
	<text transform="matrix(1 0 0 1 2600.1431 1341.6281)"><tspan x="0" y="0" class="st1 st2 st6 st4">YACHT</tspan><tspan x="0" y="204" class="st1 st2 st6 st4">ROCK</tspan></text>
	<text transform="matrix(1 0 0 1 3705.1223 798.6996)"><tspan x="0" y="0" class="st1 st2 st6 st4">BRAZILIAN</tspan><tspan x="0" y="204" class="st1 st2 st6 st4">JAZZ</tspan></text>
	<text transform="matrix(1 0 0 1 4136.9819 2437.1931)"><tspan x="0" y="0" class="st1 st2 st6 st4">smooth </tspan><tspan x="0" y="204" class="st1 st2 st6 st4">jazz</tspan></text>
	<text transform="matrix(1 0 0 1 5368.4268 2111.4402)"><tspan x="0" y="0" class="st1 st2 st6 st4">disco/</tspan><tspan x="61.03" y="204" class="st1 st2 st6 st4">funk/</tspan><tspan x="248.91" y="408" class="st1 st2 st6 st4">rnb</tspan></text>
	<rect x="4926.19" y="2145.24" class="st5" width="38.1" height="0"/>
</g>
</svg>
